<?xml version="1.0" encoding="UTF-8" standalone="no"?>
<!DOCTYPE svg PUBLIC "-//W3C//DTD SVG 1.1//EN"
 "http://www.w3.org/Graphics/SVG/1.1/DTD/svg11.dtd">
<!-- Generated by graphviz version 12.1.2 (20240928.0832)
 -->
<!-- Title: public.price_policies Pages: 1 -->
<svg width="734pt" height="694pt"
 viewBox="0.00 0.00 733.76 694.40" xmlns="http://www.w3.org/2000/svg" xmlns:xlink="http://www.w3.org/1999/xlink">
<g id="graph0" class="graph" transform="scale(1 1) rotate(0) translate(4 690.4)">
<title>public.price_policies</title>
<polygon fill="white" stroke="none" points="-4,4 -4,-690.4 729.76,-690.4 729.76,4 -4,4"/>
<!-- public.price_policies -->
<g id="node1" class="node">
<title>public.price_policies</title>
<polygon fill="#efefef" stroke="none" points="227.2,-604.6 227.2,-640.2 516.15,-640.2 516.15,-604.6 227.2,-604.6"/>
<polygon fill="none" stroke="black" points="227.2,-604.6 227.2,-640.2 516.15,-640.2 516.15,-604.6 227.2,-604.6"/>
<text text-anchor="start" x="234.2" y="-618" font-family="Arial Bold" font-size="18.00">public.price_policies</text>
<text text-anchor="start" x="384.66" y="-618" font-family="Arial" font-size="14.00">    </text>
<text text-anchor="start" x="415.77" y="-618" font-family="Arial" font-size="14.00" fill="#666666">[BASE TABLE]</text>
<polygon fill="none" stroke="black" points="227.2,-573.8 227.2,-604.6 516.15,-604.6 516.15,-573.8 227.2,-573.8"/>
<text text-anchor="start" x="234.2" y="-586" font-family="Arial" font-size="14.00">id </text>
<text text-anchor="start" x="248.99" y="-586" font-family="Arial" font-size="14.00" fill="#666666">[uuid]</text>
<polygon fill="none" stroke="black" points="227.2,-543 227.2,-573.8 516.15,-573.8 516.15,-543 227.2,-543"/>
<text text-anchor="start" x="234.2" y="-555.2" font-family="Arial" font-size="14.00">organization_id </text>
<text text-anchor="start" x="333.05" y="-555.2" font-family="Arial" font-size="14.00" fill="#666666">[uuid]</text>
<polygon fill="none" stroke="black" points="227.2,-512.2 227.2,-543 516.15,-543 516.15,-512.2 227.2,-512.2"/>
<text text-anchor="start" x="234.2" y="-524.4" font-family="Arial" font-size="14.00">meter_id </text>
<text text-anchor="start" x="292.56" y="-524.4" font-family="Arial" font-size="14.00" fill="#666666">[uuid]</text>
<polygon fill="none" stroke="black" points="227.2,-481.4 227.2,-512.2 516.15,-512.2 516.15,-481.4 227.2,-481.4"/>
<text text-anchor="start" x="234.2" y="-493.6" font-family="Arial" font-size="14.00">unit_price_krw </text>
<text text-anchor="start" x="328.36" y="-493.6" font-family="Arial" font-size="14.00" fill="#666666">[bigint]</text>
<polygon fill="none" stroke="black" points="227.2,-450.6 227.2,-481.4 516.15,-481.4 516.15,-450.6 227.2,-450.6"/>
<text text-anchor="start" x="234.2" y="-462.8" font-family="Arial" font-size="14.00">unit_size </text>
<text text-anchor="start" x="293.35" y="-462.8" font-family="Arial" font-size="14.00" fill="#666666">[bigint]</text>
<polygon fill="none" stroke="black" points="227.2,-419.8 227.2,-450.6 516.15,-450.6 516.15,-419.8 227.2,-419.8"/>
<text text-anchor="start" x="234.2" y="-432" font-family="Arial" font-size="14.00">created_at </text>
<text text-anchor="start" x="304.25" y="-432" font-family="Arial" font-size="14.00" fill="#666666">[timestamp with time zone]</text>
<polygon fill="none" stroke="black" stroke-width="3" points="225.7,-418.3 225.7,-641.7 517.65,-641.7 517.65,-418.3 225.7,-418.3"/>
</g>
<!-- public.organizations -->
<g id="node2" class="node">
<title>public.organizations</title>
<polygon fill="#efefef" stroke="none" points="43.2,-166.4 43.2,-202 328.15,-202 328.15,-166.4 43.2,-166.4"/>
<polygon fill="none" stroke="black" points="43.2,-166.4 43.2,-202 328.15,-202 328.15,-166.4 43.2,-166.4"/>
<text text-anchor="start" x="50.2" y="-179.8" font-family="Arial Bold" font-size="18.00">public.organizations</text>
<text text-anchor="start" x="196.66" y="-179.8" font-family="Arial" font-size="14.00">    </text>
<text text-anchor="start" x="227.78" y="-179.8" font-family="Arial" font-size="14.00" fill="#666666">[BASE TABLE]</text>
<polygon fill="none" stroke="black" points="43.2,-135.6 43.2,-166.4 328.15,-166.4 328.15,-135.6 43.2,-135.6"/>
<text text-anchor="start" x="50.2" y="-147.8" font-family="Arial" font-size="14.00">id </text>
<text text-anchor="start" x="64.99" y="-147.8" font-family="Arial" font-size="14.00" fill="#666666">[uuid]</text>
</g>
<!-- public.price_policies&#45;&gt;public.organizations -->
<g id="edge1" class="edge">
<title>public.price_policies:organization_id&#45;&gt;public.organizations:id</title>
<path fill="none" stroke="black" d="M215.98,-558.21C9.5,-550.11 312.16,-290.63 328.15,-245.2 342.05,-205.71 371.02,-151 329.15,-151"/>
<polygon fill="black" stroke="black" points="215.87,-558.2 225.79,-562.89 221.21,-558.31 225.54,-558.39 225.54,-558.39 225.54,-558.39 221.21,-558.31 225.96,-553.89 215.87,-558.2"/>
</g>
<!-- public.meters -->
<g id="node3" class="node">
<title>public.meters</title>
<polygon fill="#efefef" stroke="none" points="432.79,-258.8 432.79,-294.4 682.56,-294.4 682.56,-258.8 432.79,-258.8"/>
<polygon fill="none" stroke="black" points="432.79,-258.8 432.79,-294.4 682.56,-294.4 682.56,-258.8 432.79,-258.8"/>
<text text-anchor="start" x="446.7" y="-272.2" font-family="Arial Bold" font-size="18.00">public.meters</text>
<text text-anchor="start" x="544.17" y="-272.2" font-family="Arial" font-size="14.00">    </text>
<text text-anchor="start" x="575.28" y="-272.2" font-family="Arial" font-size="14.00" fill="#666666">[BASE TABLE]</text>
<polygon fill="none" stroke="black" points="432.79,-228 432.79,-258.8 682.56,-258.8 682.56,-228 432.79,-228"/>
<text text-anchor="start" x="439.79" y="-240.2" font-family="Arial" font-size="14.00">id </text>
<text text-anchor="start" x="454.58" y="-240.2" font-family="Arial" font-size="14.00" fill="#666666">[uuid]</text>
<polygon fill="none" stroke="black" points="432.79,-197.2 432.79,-228 682.56,-228 682.56,-197.2 432.79,-197.2"/>
<text text-anchor="start" x="439.79" y="-209.4" font-family="Arial" font-size="14.00">organization_id </text>
<text text-anchor="start" x="538.64" y="-209.4" font-family="Arial" font-size="14.00" fill="#666666">[uuid]</text>
<polygon fill="none" stroke="black" points="432.79,-166.4 432.79,-197.2 682.56,-197.2 682.56,-166.4 432.79,-166.4"/>
<text text-anchor="start" x="439.79" y="-178.6" font-family="Arial" font-size="14.00">code </text>
<text text-anchor="start" x="474.04" y="-178.6" font-family="Arial" font-size="14.00" fill="#666666">[text]</text>
<polygon fill="none" stroke="black" points="432.79,-135.6 432.79,-166.4 682.56,-166.4 682.56,-135.6 432.79,-135.6"/>
<text text-anchor="start" x="439.79" y="-147.8" font-family="Arial" font-size="14.00">name </text>
<text text-anchor="start" x="478.7" y="-147.8" font-family="Arial" font-size="14.00" fill="#666666">[text]</text>
<polygon fill="none" stroke="black" points="432.79,-104.8 432.79,-135.6 682.56,-135.6 682.56,-104.8 432.79,-104.8"/>
<text text-anchor="start" x="439.79" y="-117" font-family="Arial" font-size="14.00">aggregation_type </text>
<text text-anchor="start" x="551.88" y="-117" font-family="Arial" font-size="14.00" fill="#666666">[text]</text>
<polygon fill="none" stroke="black" points="432.79,-74 432.79,-104.8 682.56,-104.8 682.56,-74 432.79,-74"/>
<text text-anchor="start" x="439.79" y="-86.2" font-family="Arial" font-size="14.00">created_at </text>
<text text-anchor="start" x="509.84" y="-86.2" font-family="Arial" font-size="14.00" fill="#666666">[timestamp with time zone]</text>
<polygon fill="none" stroke="black" points="432.79,-43.2 432.79,-74 682.56,-74 682.56,-43.2 432.79,-43.2"/>
<text text-anchor="start" x="439.79" y="-55.4" font-family="Arial" font-size="14.00">deleted_at </text>
<text text-anchor="start" x="509.07" y="-55.4" font-family="Arial" font-size="14.00" fill="#666666">[timestamp with time zone]</text>
</g>
<!-- public.price_policies&#45;&gt;public.meters -->
<g id="edge2" class="edge">
<title>public.price_policies:organization_id&#45;&gt;public.meters:organization_id</title>
<path fill="none" stroke="black" d="M527.5,-557.71C595.87,-548.05 559.41,-439.03 516.15,-373.6 493.89,-339.94 455.09,-371.23 432.79,-337.6 402.08,-291.3 376.23,-212.6 431.79,-212.6"/>
<polygon fill="black" stroke="black" points="527.46,-557.71 517.18,-553.89 522.13,-558.07 517.81,-558.36 517.81,-558.36 517.81,-558.36 522.13,-558.07 517.78,-562.87 527.46,-557.71"/>
</g>
</g>
</svg>
